<?xml version="1.0" encoding="iso-8859-1"?>
<!-- Generator: Adobe Illustrator 19.0.0, SVG Export Plug-In . SVG Version: 6.00 Build 0)  -->
<svg version="1.1" id="Capa_1" xmlns="http://www.w3.org/2000/svg" xmlns:xlink="http://www.w3.org/1999/xlink" x="0px" y="0px"
	 viewBox="0 0 512 512" style="enable-background:new 0 0 512 512;" xml:space="preserve">
<rect x="8" y="77.6" style="fill:#FFFFFF;" width="72" height="249.6"/>
<path style="fill:#193651;" d="M88,335.2H0V69.6h88V335.2z M16,319.2h56V85.6H16V319.2z"/>
<rect x="149.6" y="8" style="fill:#FFFFFF;" width="72" height="319.2"/>
<path style="fill:#193651;" d="M229.6,335.2h-88V0h88V335.2z M157.6,319.2h56V16h-56V319.2z"/>
<rect x="290.4" y="77.6" style="fill:#FFFFFF;" width="72" height="249.6"/>
<path style="fill:#193651;" d="M370.4,335.2h-88V69.6h88V335.2z M298.4,319.2h56V85.6h-56V319.2z"/>
<rect x="432" y="8" style="fill:#FFFFFF;" width="72" height="319.2"/>
<path style="fill:#193651;" d="M512,335.2h-88V0h88V335.2z M440,319.2h56V16h-56V319.2z"/>
<path style="fill:#FFFFFF;" d="M256,149.6L256,149.6c-97.6,0-176.8,79.2-176.8,176.8l0,0C79.2,424.8,158.4,504,256,504l0,0
	c97.6,0,176.8-79.2,176.8-176.8l0,0C432.8,228.8,353.6,149.6,256,149.6z"/>
<path style="fill:#193651;" d="M256,512c-102.4,0-184.8-83.2-184.8-184.8S153.6,141.6,256,141.6s184.8,83.2,184.8,184.8
	S358.4,512,256,512z M256,157.6c-93.6,0-168.8,76-168.8,168.8S162.4,496,256,496s168.8-76,168.8-168.8S349.6,157.6,256,157.6z"/>
<path style="fill:#FFBF5D;" d="M256,185.6c-78.4,0-141.6,63.2-141.6,141.6S177.6,468.8,256,468.8s141.6-63.2,141.6-141.6H256V185.6z
	"/>
<path style="fill:#27A2DE;" d="M256,185.6L256,185.6v141.6h141.6l0,0C397.6,248.8,334.4,185.6,256,185.6z"/>
<rect x="165.702" y="339.946" transform="matrix(-0.775 -0.6319 0.6319 -0.775 87.9439 728.8004)" style="fill:#193651;" width="15.999" height="17.599"/>
<rect x="209.597" y="375.938" transform="matrix(-0.775 -0.6319 0.6319 -0.775 143.116 820.4253)" style="fill:#193651;" width="15.999" height="17.599"/>
<rect x="253.485" y="411.921" transform="matrix(-0.775 -0.6319 0.6319 -0.775 198.2789 912.0309)" style="fill:#193651;" width="15.999" height="17.599"/>
<g>
</g>
<g>
</g>
<g>
</g>
<g>
</g>
<g>
</g>
<g>
</g>
<g>
</g>
<g>
</g>
<g>
</g>
<g>
</g>
<g>
</g>
<g>
</g>
<g>
</g>
<g>
</g>
<g>
</g>
</svg>
